<svg width="932" height="123" viewBox="0 0 932 123" fill="none" xmlns="http://www.w3.org/2000/svg">
<rect x="1" y="0.5" width="930" height="122" rx="15.5" fill="white"/>
<rect x="1" y="0.5" width="930" height="122" rx="15.5" stroke="#EFF0F7"/>
<path d="M138.239 62.4773C135.966 62.4773 133.932 62.0511 132.136 61.1989C130.341 60.3352 128.915 59.1534 127.858 57.6534C126.813 56.1534 126.256 54.4375 126.188 52.5057H132.324C132.438 53.9375 133.057 55.108 134.182 56.017C135.307 56.9148 136.659 57.3636 138.239 57.3636C139.477 57.3636 140.58 57.0795 141.545 56.5114C142.511 55.9432 143.273 55.1534 143.83 54.142C144.386 53.1307 144.659 51.9773 144.648 50.6818C144.659 49.3636 144.381 48.1932 143.812 47.1705C143.244 46.1477 142.466 45.3466 141.477 44.767C140.489 44.1761 139.352 43.8807 138.068 43.8807C137.023 43.8693 135.994 44.0625 134.983 44.4602C133.972 44.858 133.17 45.3807 132.58 46.0284L126.869 45.0909L128.693 27.0909H148.943V32.375H133.926L132.92 41.6307H133.125C133.773 40.8693 134.688 40.2386 135.869 39.7386C137.051 39.2273 138.347 38.9716 139.756 38.9716C141.869 38.9716 143.756 39.4716 145.415 40.4716C147.074 41.4602 148.381 42.8239 149.335 44.5625C150.29 46.3011 150.767 48.2898 150.767 50.5284C150.767 52.8352 150.233 54.892 149.165 56.6989C148.108 58.4943 146.636 59.9091 144.75 60.9432C142.875 61.9659 140.705 62.4773 138.239 62.4773ZM165.554 62.6648C162.747 62.6648 160.338 61.9545 158.327 60.5341C156.327 59.1023 154.787 57.0398 153.707 54.3466C152.639 51.642 152.105 48.3864 152.105 44.5795C152.116 40.7727 152.656 37.5341 153.724 34.8636C154.804 32.1818 156.344 30.1364 158.344 28.7273C160.355 27.3182 162.759 26.6136 165.554 26.6136C168.349 26.6136 170.753 27.3182 172.764 28.7273C174.776 30.1364 176.315 32.1818 177.384 34.8636C178.463 37.5455 179.003 40.7841 179.003 44.5795C179.003 48.3977 178.463 51.6591 177.384 54.3636C176.315 57.0568 174.776 59.1136 172.764 60.5341C170.764 61.9545 168.361 62.6648 165.554 62.6648ZM165.554 57.3295C167.736 57.3295 169.457 56.2557 170.719 54.108C171.991 51.9489 172.628 48.7727 172.628 44.5795C172.628 41.8068 172.338 39.4773 171.759 37.5909C171.179 35.7045 170.361 34.2841 169.304 33.3295C168.247 32.3636 166.997 31.8807 165.554 31.8807C163.384 31.8807 161.668 32.9602 160.406 35.1193C159.145 37.267 158.509 40.4205 158.497 44.5795C158.486 47.3636 158.764 49.7045 159.332 51.6023C159.912 53.5 160.73 54.9318 161.787 55.8977C162.844 56.8523 164.099 57.3295 165.554 57.3295ZM181.18 62V27.0909H187.504V43.1307H187.93L201.55 27.0909H209.271L195.771 42.7557L209.391 62H201.788L191.374 47.0341L187.504 51.6023V62H181.18Z" fill="#7F56D9"/>
<path d="M52.325 82L61.75 96.25V82H63.8V100H62L52.55 85.75V100H50.5V82H52.325ZM68.0369 93.8C68.0869 94.95 68.3619 96.075 69.0119 96.925C69.7369 97.925 70.9869 98.45 72.2869 98.45C73.5869 98.45 74.8119 97.925 75.5619 96.925C75.7369 96.675 75.8619 96.45 75.9869 96.2L77.9869 97.075C77.7869 97.45 77.5369 97.85 77.2369 98.2C76.0619 99.65 74.1869 100.425 72.2869 100.375C70.3619 100.325 68.5369 99.625 67.3619 98.175C66.2369 96.75 65.8369 94.975 65.8369 93.25C65.8619 91.475 66.2369 89.75 67.3619 88.325C68.5619 86.85 70.3369 86.125 72.2869 86.125C74.2369 86.125 76.0119 86.85 77.1869 88.325C78.3119 89.75 78.7119 91.5 78.7119 93.25C78.7119 93.425 78.7119 93.625 78.6869 93.8H68.0369ZM72.2869 88.05C70.9869 88.05 69.7369 88.575 69.0119 89.575C68.4869 90.275 68.1869 91.175 68.0869 92.1H76.4869C76.3869 91.175 76.0869 90.275 75.5619 89.575C74.8119 88.575 73.5869 88.05 72.2869 88.05ZM94.9597 86.5H96.9597L92.8347 100H90.8097L87.8097 89.8L84.6847 100H82.7597L78.6347 86.5H80.6847L83.7847 96.675L86.8847 86.5H88.7097L91.8347 96.675L94.9597 86.5ZM111.813 86.5H113.838V100H112.038V98.45C111.913 98.6 111.763 98.775 111.588 98.925C110.613 99.825 109.288 100.275 108.038 100.325C106.738 100.4 105.338 100 104.263 99.2C102.413 97.775 102.088 95.625 102.113 93.15V86.5H104.163V93.15C104.163 95.075 104.388 96.675 105.663 97.625C106.338 98.15 107.213 98.375 108.213 98.35C109.063 98.325 109.838 98.05 110.438 97.5C111.063 96.975 111.488 96.175 111.638 95.275C111.813 94.45 111.813 93.45 111.813 92.425V92.4V86.5ZM126.922 90.05L124.922 90.525C124.622 89.7 123.997 88.925 123.222 88.525C122.647 88.225 121.947 88.075 121.222 88.075C120.497 88.05 119.797 88.175 119.222 88.45C118.622 88.775 118.222 89.3 118.222 89.85C118.222 90.25 118.347 90.575 118.647 90.875C118.972 91.2 119.447 91.425 120.347 91.675C121.022 91.875 121.872 92.1 122.922 92.375C123.922 92.65 124.747 92.95 125.547 93.625C126.572 94.45 127.047 95.45 126.947 96.65C126.847 97.8 126.197 98.85 125.222 99.475C124.172 100.15 122.797 100.35 121.447 100.35C119.672 100.35 118.072 99.85 116.922 98.625C116.147 97.75 115.672 96.5 115.497 95.575L117.472 95.1C117.572 95.85 117.872 96.7 118.397 97.3C119.172 98.15 120.322 98.425 121.422 98.425C122.347 98.425 123.472 98.225 124.097 97.8C124.572 97.45 124.797 97 124.872 96.475C124.922 95.95 124.722 95.475 124.297 95.125C123.872 94.725 123.347 94.525 122.347 94.225C121.672 94.025 120.922 93.825 119.997 93.575C118.972 93.3 118.122 93.025 117.347 92.4C116.497 91.75 116.122 90.775 116.122 89.875C116.122 88.45 117.122 87.225 118.372 86.65C119.347 86.225 120.322 86.1 121.272 86.125C122.197 86.125 123.222 86.325 124.122 86.775C125.397 87.45 126.522 88.725 126.922 90.05ZM130.081 93.8C130.131 94.95 130.406 96.075 131.056 96.925C131.781 97.925 133.031 98.45 134.331 98.45C135.631 98.45 136.856 97.925 137.606 96.925C137.781 96.675 137.906 96.45 138.031 96.2L140.031 97.075C139.831 97.45 139.581 97.85 139.281 98.2C138.106 99.65 136.231 100.425 134.331 100.375C132.406 100.325 130.581 99.625 129.406 98.175C128.281 96.75 127.881 94.975 127.881 93.25C127.906 91.475 128.281 89.75 129.406 88.325C130.606 86.85 132.381 86.125 134.331 86.125C136.281 86.125 138.056 86.85 139.231 88.325C140.356 89.75 140.756 91.5 140.756 93.25C140.756 93.425 140.756 93.625 140.731 93.8H130.081ZM134.331 88.05C133.031 88.05 131.781 88.575 131.056 89.575C130.531 90.275 130.231 91.175 130.131 92.1H138.531C138.431 91.175 138.131 90.275 137.606 89.575C136.856 88.575 135.631 88.05 134.331 88.05ZM148.603 86.125C149.253 86.125 149.878 86.2 150.478 86.4V88.325C149.903 88.125 149.203 88 148.453 88.05C147.403 88.075 146.478 88.425 145.853 89.05C144.653 90.175 144.603 91.65 144.603 93.475V100H142.553V86.5H144.378V88.5C144.653 88.025 145.028 87.6 145.528 87.2C146.403 86.475 147.528 86.15 148.603 86.125ZM161.94 90.05L159.94 90.525C159.64 89.7 159.015 88.925 158.24 88.525C157.665 88.225 156.965 88.075 156.24 88.075C155.515 88.05 154.815 88.175 154.24 88.45C153.64 88.775 153.24 89.3 153.24 89.85C153.24 90.25 153.365 90.575 153.665 90.875C153.99 91.2 154.465 91.425 155.365 91.675C156.04 91.875 156.89 92.1 157.94 92.375C158.94 92.65 159.765 92.95 160.565 93.625C161.59 94.45 162.065 95.45 161.965 96.65C161.865 97.8 161.215 98.85 160.24 99.475C159.19 100.15 157.815 100.35 156.465 100.35C154.69 100.35 153.09 99.85 151.94 98.625C151.165 97.75 150.69 96.5 150.515 95.575L152.49 95.1C152.59 95.85 152.89 96.7 153.415 97.3C154.19 98.15 155.34 98.425 156.44 98.425C157.365 98.425 158.49 98.225 159.115 97.8C159.59 97.45 159.815 97 159.89 96.475C159.94 95.95 159.74 95.475 159.315 95.125C158.89 94.725 158.365 94.525 157.365 94.225C156.69 94.025 155.94 93.825 155.015 93.575C153.99 93.3 153.14 93.025 152.365 92.4C151.515 91.75 151.14 90.775 151.14 89.875C151.14 88.45 152.14 87.225 153.39 86.65C154.365 86.225 155.34 86.1 156.29 86.125C157.215 86.125 158.24 86.325 159.14 86.775C160.415 87.45 161.54 88.725 161.94 90.05ZM179.342 88.3C180.417 89.675 180.817 91.475 180.817 93.225C180.817 95 180.467 96.775 179.342 98.2C178.217 99.625 176.517 100.375 174.667 100.375C172.917 100.375 171.392 99.75 170.317 98.575V106H168.267V86.5H170.092V88.2C171.167 86.875 172.892 86.125 174.692 86.125C176.542 86.125 178.242 86.9 179.342 88.3ZM177.692 96.925C178.417 95.975 178.667 94.625 178.667 93.225C178.667 91.85 178.392 90.5 177.692 89.525C176.942 88.475 175.717 88 174.367 88C173.092 88 171.917 88.45 171.167 89.425C170.392 90.4 170.092 91.825 170.092 93.225C170.092 94.65 170.392 96.075 171.167 97.05C171.917 98 173.142 98.5 174.417 98.5C175.692 98.5 176.942 97.975 177.692 96.925ZM184.062 93.8C184.112 94.95 184.387 96.075 185.037 96.925C185.762 97.925 187.012 98.45 188.312 98.45C189.612 98.45 190.837 97.925 191.587 96.925C191.762 96.675 191.887 96.45 192.012 96.2L194.012 97.075C193.812 97.45 193.562 97.85 193.262 98.2C192.087 99.65 190.212 100.425 188.312 100.375C186.387 100.325 184.562 99.625 183.387 98.175C182.262 96.75 181.862 94.975 181.862 93.25C181.887 91.475 182.262 89.75 183.387 88.325C184.587 86.85 186.362 86.125 188.312 86.125C190.262 86.125 192.037 86.85 193.212 88.325C194.337 89.75 194.737 91.5 194.737 93.25C194.737 93.425 194.737 93.625 194.712 93.8H184.062ZM188.312 88.05C187.012 88.05 185.762 88.575 185.037 89.575C184.512 90.275 184.212 91.175 184.112 92.1H192.512C192.412 91.175 192.112 90.275 191.587 89.575C190.837 88.575 189.612 88.05 188.312 88.05ZM202.585 86.125C203.235 86.125 203.86 86.2 204.46 86.4V88.325C203.885 88.125 203.185 88 202.435 88.05C201.385 88.075 200.46 88.425 199.835 89.05C198.635 90.175 198.585 91.65 198.585 93.475V100H196.535V86.5H198.36V88.5C198.635 88.025 199.01 87.6 199.51 87.2C200.385 86.475 201.51 86.15 202.585 86.125ZM227.057 87.525C228.507 88.7 228.632 90.1 228.632 92.025V100H226.607V92.025C226.607 90.65 226.532 89.85 225.582 89.025C225.057 88.55 224.357 88.3 223.657 88.3C222.707 88.3 221.857 88.675 221.282 89.375C220.682 90.125 220.582 90.85 220.582 91.7V92.025L220.557 100H218.557V92.025C218.557 90.65 218.482 89.85 217.507 89.025C217.007 88.55 216.307 88.3 215.582 88.3C214.657 88.3 213.782 88.675 213.232 89.375C212.632 90.125 212.532 90.85 212.532 91.7V100H210.482V86.5H212.307V88.3C213.182 87.125 214.607 86.475 216.082 86.475C217.082 86.475 218.182 86.85 219.007 87.525C219.482 87.925 219.807 88.35 220.057 88.8C220.107 88.675 220.182 88.575 220.257 88.475C221.107 87.2 222.582 86.475 224.132 86.475C225.157 86.475 226.232 86.85 227.057 87.525ZM236.363 100.375C234.413 100.375 232.613 99.65 231.438 98.175C230.313 96.75 229.913 95 229.913 93.225C229.913 91.475 230.338 89.7 231.438 88.325C232.588 86.9 234.413 86.125 236.363 86.125C238.288 86.125 240.113 86.85 241.263 88.325C242.438 89.75 242.813 91.5 242.813 93.225C242.813 95.05 242.413 96.725 241.263 98.175C240.088 99.675 238.338 100.375 236.363 100.375ZM239.663 96.925C240.413 95.925 240.663 94.575 240.663 93.225C240.663 91.925 240.413 90.55 239.663 89.55C238.913 88.55 237.663 88.05 236.363 88.05C235.063 88.05 233.813 88.55 233.088 89.55C232.313 90.55 232.063 91.925 232.063 93.225C232.063 94.575 232.313 95.925 233.088 96.925C233.813 97.925 235.063 98.45 236.363 98.45C237.663 98.45 238.913 97.925 239.663 96.925ZM254.184 87.3C256.034 88.725 256.359 90.875 256.334 93.35V100H254.284V93.35C254.284 91.425 254.084 89.825 252.784 88.85C252.109 88.35 251.234 88.1 250.234 88.15C249.409 88.175 248.609 88.45 248.009 88.975C247.384 89.525 246.984 90.325 246.809 91.225C246.684 91.775 246.659 92.425 246.659 93.075V100H244.609V86.5H246.434V88.025C246.559 87.875 246.709 87.725 246.859 87.575C247.859 86.675 249.184 86.225 250.409 86.175C251.734 86.1 253.109 86.5 254.184 87.3ZM261.941 88.2V94.9C261.941 96.025 261.916 96.7 262.241 97.275C262.516 97.875 263.141 98.225 263.816 98.275C264.516 98.35 265.341 98.325 266.041 98.2V100C265.141 100.225 263.891 100.275 263.016 100.1C261.816 99.875 260.891 99.325 260.391 98.3C259.916 97.35 259.916 96.3 259.916 95V88.2H256.891V86.5H259.916V82.75H261.941V86.5H266.041V88.2H261.941ZM277.647 87.3C279.497 88.725 279.822 90.875 279.797 93.35V100H277.747V93.35C277.747 91.425 277.547 89.825 276.247 88.85C275.572 88.35 274.697 88.1 273.697 88.15C272.872 88.175 272.072 88.45 271.472 88.975C270.847 89.525 270.447 90.325 270.272 91.225C270.147 91.775 270.122 92.425 270.122 93.075V100H268.072V82H269.897V88.025C270.022 87.875 270.172 87.725 270.322 87.575C271.322 86.675 272.647 86.225 273.872 86.175C275.197 86.1 276.572 86.5 277.647 87.3Z" fill="#7F56D9"/>
<path d="M345 16V100.001" stroke="#EDF0EE" stroke-linecap="round"/>
<path d="M443.301 27.0909V62H436.977V33.2443H436.773L428.608 38.4602V32.6648L437.284 27.0909H443.301ZM460.474 62.4773C458.202 62.4773 456.168 62.0511 454.372 61.1989C452.577 60.3352 451.151 59.1534 450.094 57.6534C449.048 56.1534 448.491 54.4375 448.423 52.5057H454.56C454.673 53.9375 455.293 55.108 456.418 56.017C457.543 56.9148 458.895 57.3636 460.474 57.3636C461.713 57.3636 462.815 57.0795 463.781 56.5114C464.747 55.9432 465.509 55.1534 466.065 54.142C466.622 53.1307 466.895 51.9773 466.884 50.6818C466.895 49.3636 466.616 48.1932 466.048 47.1705C465.48 46.1477 464.702 45.3466 463.713 44.767C462.724 44.1761 461.588 43.8807 460.304 43.8807C459.259 43.8693 458.23 44.0625 457.219 44.4602C456.207 44.858 455.406 45.3807 454.815 46.0284L449.105 45.0909L450.929 27.0909H471.179V32.375H456.162L455.156 41.6307H455.361C456.009 40.8693 456.923 40.2386 458.105 39.7386C459.287 39.2273 460.582 38.9716 461.991 38.9716C464.105 38.9716 465.991 39.4716 467.651 40.4716C469.31 41.4602 470.616 42.8239 471.571 44.5625C472.526 46.3011 473.003 48.2898 473.003 50.5284C473.003 52.8352 472.469 54.892 471.401 56.6989C470.344 58.4943 468.872 59.9091 466.986 60.9432C465.111 61.9659 462.94 62.4773 460.474 62.4773ZM487.79 62.6648C484.983 62.6648 482.574 61.9545 480.563 60.5341C478.563 59.1023 477.023 57.0398 475.943 54.3466C474.875 51.642 474.341 48.3864 474.341 44.5795C474.352 40.7727 474.892 37.5341 475.96 34.8636C477.04 32.1818 478.58 30.1364 480.58 28.7273C482.591 27.3182 484.994 26.6136 487.79 26.6136C490.585 26.6136 492.989 27.3182 495 28.7273C497.011 30.1364 498.551 32.1818 499.619 34.8636C500.699 37.5455 501.239 40.7841 501.239 44.5795C501.239 48.3977 500.699 51.6591 499.619 54.3636C498.551 57.0568 497.011 59.1136 495 60.5341C493 61.9545 490.597 62.6648 487.79 62.6648ZM487.79 57.3295C489.972 57.3295 491.693 56.2557 492.955 54.108C494.227 51.9489 494.864 48.7727 494.864 44.5795C494.864 41.8068 494.574 39.4773 493.994 37.5909C493.415 35.7045 492.597 34.2841 491.54 33.3295C490.483 32.3636 489.233 31.8807 487.79 31.8807C485.619 31.8807 483.903 32.9602 482.642 35.1193C481.381 37.267 480.744 40.4205 480.733 44.5795C480.722 47.3636 481 49.7045 481.568 51.6023C482.148 53.5 482.966 54.9318 484.023 55.8977C485.08 56.8523 486.335 57.3295 487.79 57.3295ZM503.416 62V27.0909H509.74V43.1307H510.166L523.786 27.0909H531.507L518.007 42.7557L531.626 62H524.024L513.609 47.0341L509.74 51.6023V62H503.416Z" fill="#7F56D9"/>
<path d="M421.5 100L420.325 96.55H411.925L410.75 100H408.625L414.75 82H417.5L423.625 100H421.5ZM412.575 94.625H419.65L416.1 84.225L412.575 94.625ZM435.873 89.5L433.973 90.325C433.848 90.05 433.673 89.8 433.523 89.575C432.773 88.55 431.548 88.05 430.223 88.05C428.948 88.05 427.698 88.55 426.973 89.575C426.198 90.575 425.973 91.925 425.948 93.25C425.973 94.575 426.198 95.925 426.973 96.925C427.698 97.925 428.948 98.425 430.223 98.425C431.548 98.425 432.773 97.925 433.523 96.925C433.673 96.7 433.823 96.45 433.948 96.2L435.873 97.05C435.648 97.425 435.423 97.8 435.148 98.15C433.973 99.625 432.173 100.375 430.223 100.375C428.298 100.375 426.498 99.65 425.323 98.15C424.198 96.75 423.823 94.975 423.798 93.25C423.823 91.5 424.198 89.75 425.323 88.325C426.548 86.8 428.298 86.125 430.223 86.125C432.173 86.125 433.948 86.85 435.148 88.325C435.423 88.7 435.673 89.075 435.873 89.5ZM441.083 88.2V94.9C441.083 96.025 441.058 96.7 441.383 97.275C441.658 97.875 442.283 98.225 442.958 98.275C443.658 98.35 444.483 98.325 445.183 98.2V100C444.283 100.225 443.033 100.275 442.158 100.1C440.958 99.875 440.033 99.325 439.533 98.3C439.058 97.35 439.058 96.3 439.058 95V88.2H436.033V86.5H439.058V82.75H441.083V86.5H445.183V88.2H441.083ZM447.464 82H449.489V84.175H447.464V82ZM447.464 86.5H449.489V100H447.464V86.5ZM460.752 86.5H462.827L457.902 100H455.827L450.927 86.5H452.977L456.877 97.375L460.752 86.5ZM465.353 93.8C465.403 94.95 465.678 96.075 466.328 96.925C467.053 97.925 468.303 98.45 469.603 98.45C470.903 98.45 472.128 97.925 472.878 96.925C473.053 96.675 473.178 96.45 473.303 96.2L475.303 97.075C475.103 97.45 474.853 97.85 474.553 98.2C473.378 99.65 471.503 100.425 469.603 100.375C467.678 100.325 465.853 99.625 464.678 98.175C463.553 96.75 463.153 94.975 463.153 93.25C463.178 91.475 463.553 89.75 464.678 88.325C465.878 86.85 467.653 86.125 469.603 86.125C471.553 86.125 473.328 86.85 474.503 88.325C475.628 89.75 476.028 91.5 476.028 93.25C476.028 93.425 476.028 93.625 476.003 93.8H465.353ZM469.603 88.05C468.303 88.05 467.053 88.575 466.328 89.575C465.803 90.275 465.503 91.175 465.403 92.1H473.803C473.703 91.175 473.403 90.275 472.878 89.575C472.128 88.575 470.903 88.05 469.603 88.05ZM496.819 82V93.5C496.819 95.05 496.244 96.65 495.269 97.85C493.969 99.5 491.894 100.4 489.769 100.375C487.669 100.4 485.569 99.5 484.269 97.85C483.319 96.675 482.694 95 482.694 93.5V82H484.744V92.725C484.744 94.275 484.844 95.3 485.819 96.6C486.769 97.775 488.269 98.475 489.769 98.475C491.269 98.475 492.769 97.775 493.694 96.575C494.669 95.35 494.769 94.275 494.769 92.725V82H496.819ZM510.151 90.05L508.151 90.525C507.851 89.7 507.226 88.925 506.451 88.525C505.876 88.225 505.176 88.075 504.451 88.075C503.726 88.05 503.026 88.175 502.451 88.45C501.851 88.775 501.451 89.3 501.451 89.85C501.451 90.25 501.576 90.575 501.876 90.875C502.201 91.2 502.676 91.425 503.576 91.675C504.251 91.875 505.101 92.1 506.151 92.375C507.151 92.65 507.976 92.95 508.776 93.625C509.801 94.45 510.276 95.45 510.176 96.65C510.076 97.8 509.426 98.85 508.451 99.475C507.401 100.15 506.026 100.35 504.676 100.35C502.901 100.35 501.301 99.85 500.151 98.625C499.376 97.75 498.901 96.5 498.726 95.575L500.701 95.1C500.801 95.85 501.101 96.7 501.626 97.3C502.401 98.15 503.551 98.425 504.651 98.425C505.576 98.425 506.701 98.225 507.326 97.8C507.801 97.45 508.026 97 508.101 96.475C508.151 95.95 507.951 95.475 507.526 95.125C507.101 94.725 506.576 94.525 505.576 94.225C504.901 94.025 504.151 93.825 503.226 93.575C502.201 93.3 501.351 93.025 500.576 92.4C499.726 91.75 499.351 90.775 499.351 89.875C499.351 88.45 500.351 87.225 501.601 86.65C502.576 86.225 503.551 86.1 504.501 86.125C505.426 86.125 506.451 86.325 507.351 86.775C508.626 87.45 509.751 88.725 510.151 90.05ZM513.31 93.8C513.36 94.95 513.635 96.075 514.285 96.925C515.01 97.925 516.26 98.45 517.56 98.45C518.86 98.45 520.085 97.925 520.835 96.925C521.01 96.675 521.135 96.45 521.26 96.2L523.26 97.075C523.06 97.45 522.81 97.85 522.51 98.2C521.335 99.65 519.46 100.425 517.56 100.375C515.635 100.325 513.81 99.625 512.635 98.175C511.51 96.75 511.11 94.975 511.11 93.25C511.135 91.475 511.51 89.75 512.635 88.325C513.835 86.85 515.61 86.125 517.56 86.125C519.51 86.125 521.285 86.85 522.46 88.325C523.585 89.75 523.985 91.5 523.985 93.25C523.985 93.425 523.985 93.625 523.96 93.8H513.31ZM517.56 88.05C516.26 88.05 515.01 88.575 514.285 89.575C513.76 90.275 513.46 91.175 513.36 92.1H521.76C521.66 91.175 521.36 90.275 520.835 89.575C520.085 88.575 518.86 88.05 517.56 88.05ZM531.833 86.125C532.483 86.125 533.108 86.2 533.708 86.4V88.325C533.133 88.125 532.433 88 531.683 88.05C530.633 88.075 529.708 88.425 529.083 89.05C527.883 90.175 527.833 91.65 527.833 93.475V100H525.783V86.5H527.608V88.5C527.883 88.025 528.258 87.6 528.758 87.2C529.633 86.475 530.758 86.15 531.833 86.125ZM545.17 90.05L543.17 90.525C542.87 89.7 542.245 88.925 541.47 88.525C540.895 88.225 540.195 88.075 539.47 88.075C538.745 88.05 538.045 88.175 537.47 88.45C536.87 88.775 536.47 89.3 536.47 89.85C536.47 90.25 536.595 90.575 536.895 90.875C537.22 91.2 537.695 91.425 538.595 91.675C539.27 91.875 540.12 92.1 541.17 92.375C542.17 92.65 542.995 92.95 543.795 93.625C544.82 94.45 545.295 95.45 545.195 96.65C545.095 97.8 544.445 98.85 543.47 99.475C542.42 100.15 541.045 100.35 539.695 100.35C537.92 100.35 536.32 99.85 535.17 98.625C534.395 97.75 533.92 96.5 533.745 95.575L535.72 95.1C535.82 95.85 536.12 96.7 536.645 97.3C537.42 98.15 538.57 98.425 539.67 98.425C540.595 98.425 541.72 98.225 542.345 97.8C542.82 97.45 543.045 97 543.12 96.475C543.17 95.95 542.97 95.475 542.545 95.125C542.12 94.725 541.595 94.525 540.595 94.225C539.92 94.025 539.17 93.825 538.245 93.575C537.22 93.3 536.37 93.025 535.595 92.4C534.745 91.75 534.37 90.775 534.37 89.875C534.37 88.45 535.37 87.225 536.62 86.65C537.595 86.225 538.57 86.1 539.52 86.125C540.445 86.125 541.47 86.325 542.37 86.775C543.645 87.45 544.77 88.725 545.17 90.05Z" fill="#7F56D9"/>
<path d="M610 16V100.001" stroke="#EDF0EE" stroke-linecap="round"/>
<path d="M746.222 26.6136C747.892 26.625 749.517 26.9205 751.097 27.5C752.688 28.0682 754.119 29 755.392 30.2955C756.665 31.5795 757.676 33.3011 758.426 35.4602C759.176 37.6193 759.551 40.2898 759.551 43.4716C759.563 46.4716 759.244 49.1534 758.597 51.517C757.96 53.8693 757.045 55.858 755.852 57.483C754.659 59.108 753.222 60.3466 751.54 61.1989C749.858 62.0511 747.966 62.4773 745.864 62.4773C743.659 62.4773 741.705 62.0455 740 61.1818C738.307 60.3182 736.938 59.1364 735.892 57.6364C734.847 56.1364 734.205 54.4205 733.966 52.4886H740.188C740.506 53.875 741.153 54.9773 742.131 55.7955C743.119 56.6023 744.364 57.0057 745.864 57.0057C748.284 57.0057 750.148 55.9545 751.455 53.8523C752.761 51.75 753.415 48.8295 753.415 45.0909H753.176C752.619 46.0909 751.898 46.9545 751.011 47.6818C750.125 48.3977 749.119 48.9489 747.994 49.3352C746.881 49.7216 745.699 49.9148 744.449 49.9148C742.403 49.9148 740.563 49.4261 738.926 48.4489C737.301 47.4716 736.011 46.1307 735.057 44.4261C734.114 42.7216 733.636 40.7727 733.625 38.5795C733.625 36.3068 734.148 34.267 735.193 32.4602C736.25 30.642 737.722 29.2102 739.608 28.1648C741.494 27.108 743.699 26.5909 746.222 26.6136ZM746.239 31.7273C745.011 31.7273 743.903 32.0284 742.915 32.6307C741.938 33.2216 741.165 34.0284 740.597 35.0511C740.04 36.0625 739.761 37.1932 739.761 38.4432C739.773 39.6818 740.051 40.8068 740.597 41.8182C741.153 42.8295 741.909 43.6307 742.864 44.2216C743.83 44.8125 744.932 45.108 746.17 45.108C747.091 45.108 747.949 44.9318 748.744 44.5795C749.54 44.2273 750.233 43.7386 750.824 43.1136C751.426 42.4773 751.892 41.7557 752.222 40.9489C752.563 40.142 752.727 39.2898 752.716 38.392C752.716 37.1989 752.432 36.0966 751.864 35.0852C751.307 34.0739 750.54 33.2614 749.562 32.6477C748.597 32.0341 747.489 31.7273 746.239 31.7273ZM773.81 62.4773C771.276 62.4773 769.026 62.0511 767.06 61.1989C765.105 60.3466 763.571 59.1818 762.457 57.7045C761.355 56.2159 760.81 54.5284 760.821 52.642C760.81 51.1761 761.128 49.8295 761.776 48.6023C762.423 47.375 763.298 46.3523 764.401 45.5341C765.514 44.7045 766.753 44.1761 768.116 43.9489V43.7102C766.321 43.3125 764.866 42.3977 763.753 40.9659C762.651 39.5227 762.105 37.858 762.116 35.9716C762.105 34.1761 762.605 32.5739 763.616 31.1648C764.628 29.7557 766.014 28.6477 767.776 27.8409C769.537 27.0227 771.548 26.6136 773.81 26.6136C776.048 26.6136 778.043 27.0227 779.793 27.8409C781.554 28.6477 782.94 29.7557 783.952 31.1648C784.974 32.5739 785.486 34.1761 785.486 35.9716C785.486 37.858 784.923 39.5227 783.798 40.9659C782.685 42.3977 781.247 43.3125 779.486 43.7102V43.9489C780.849 44.1761 782.077 44.7045 783.168 45.5341C784.27 46.3523 785.145 47.375 785.793 48.6023C786.452 49.8295 786.781 51.1761 786.781 52.642C786.781 54.5284 786.224 56.2159 785.111 57.7045C783.997 59.1818 782.463 60.3466 780.509 61.1989C778.565 62.0511 776.332 62.4773 773.81 62.4773ZM773.81 57.6023C775.116 57.6023 776.253 57.3807 777.219 56.9375C778.185 56.483 778.935 55.8466 779.469 55.0284C780.003 54.2102 780.276 53.267 780.287 52.1989C780.276 51.0852 779.986 50.1023 779.418 49.25C778.861 48.3864 778.094 47.7102 777.116 47.2216C776.151 46.733 775.048 46.4886 773.81 46.4886C772.56 46.4886 771.446 46.733 770.469 47.2216C769.491 47.7102 768.719 48.3864 768.151 49.25C767.594 50.1023 767.321 51.0852 767.332 52.1989C767.321 53.267 767.582 54.2102 768.116 55.0284C768.651 55.8352 769.401 56.4659 770.366 56.9205C771.344 57.375 772.491 57.6023 773.81 57.6023ZM773.81 41.6989C774.878 41.6989 775.821 41.483 776.639 41.0511C777.469 40.6193 778.122 40.017 778.599 39.2443C779.077 38.4716 779.321 37.5795 779.332 36.5682C779.321 35.5682 779.082 34.6932 778.616 33.9432C778.151 33.1818 777.503 32.5966 776.673 32.1875C775.844 31.767 774.889 31.5568 773.81 31.5568C772.707 31.5568 771.736 31.767 770.895 32.1875C770.065 32.5966 769.418 33.1818 768.952 33.9432C768.497 34.6932 768.276 35.5682 768.287 36.5682C768.276 37.5795 768.503 38.4716 768.969 39.2443C769.446 40.0057 770.099 40.608 770.929 41.0511C771.77 41.483 772.73 41.6989 773.81 41.6989ZM807.223 55.4545V53.6136C807.223 52.2614 807.507 51.017 808.075 49.8807C808.655 48.7443 809.496 47.8295 810.598 47.1364C811.7 46.4432 813.036 46.0966 814.604 46.0966C816.217 46.0966 817.57 46.4432 818.661 47.1364C819.751 47.8182 820.575 48.7273 821.132 49.8636C821.7 51 821.984 52.25 821.984 53.6136V55.4545C821.984 56.8068 821.7 58.0511 821.132 59.1875C820.564 60.3239 819.729 61.2386 818.626 61.9318C817.536 62.625 816.195 62.9716 814.604 62.9716C813.013 62.9716 811.666 62.625 810.564 61.9318C809.462 61.2386 808.626 60.3239 808.058 59.1875C807.501 58.0511 807.223 56.8068 807.223 55.4545ZM811.672 53.6136V55.4545C811.672 56.3523 811.888 57.1761 812.32 57.9261C812.751 58.6761 813.513 59.0511 814.604 59.0511C815.706 59.0511 816.462 58.6818 816.871 57.9432C817.291 57.1932 817.501 56.3636 817.501 55.4545V53.6136C817.501 52.7045 817.303 51.875 816.905 51.125C816.507 50.3636 815.74 49.983 814.604 49.983C813.536 49.983 812.78 50.3636 812.337 51.125C811.893 51.875 811.672 52.7045 811.672 53.6136ZM789.479 35.4773V33.6364C789.479 32.2727 789.768 31.0227 790.348 29.8864C790.928 28.75 791.768 27.8409 792.871 27.1591C793.973 26.4659 795.308 26.1193 796.876 26.1193C798.479 26.1193 799.825 26.4659 800.916 27.1591C802.018 27.8409 802.848 28.75 803.405 29.8864C803.962 31.0227 804.24 32.2727 804.24 33.6364V35.4773C804.24 36.8409 803.956 38.0909 803.388 39.2273C802.831 40.3523 802.001 41.2557 800.899 41.9375C799.797 42.6193 798.456 42.9602 796.876 42.9602C795.274 42.9602 793.922 42.6193 792.82 41.9375C791.729 41.2557 790.899 40.3466 790.331 39.2102C789.763 38.0739 789.479 36.8295 789.479 35.4773ZM793.962 33.6364V35.4773C793.962 36.3864 794.172 37.2159 794.592 37.9659C795.024 38.7045 795.786 39.0739 796.876 39.0739C797.967 39.0739 798.717 38.7045 799.126 37.9659C799.547 37.2159 799.757 36.3864 799.757 35.4773V33.6364C799.757 32.7273 799.558 31.8977 799.161 31.1477C798.763 30.3864 798.001 30.0057 796.876 30.0057C795.797 30.0057 795.041 30.3864 794.609 31.1477C794.178 31.9091 793.962 32.7386 793.962 33.6364ZM791.422 62L815.422 27.0909H819.683L795.683 62H791.422Z" fill="#7F56D9"/>
<path d="M681.18 100.36C679.972 100.36 678.884 100.16 677.916 99.76C676.956 99.352 676.16 98.776 675.528 98.032C674.904 97.288 674.496 96.404 674.304 95.38L676.104 95.08C676.392 96.2 677 97.08 677.928 97.72C678.856 98.352 679.964 98.668 681.252 98.668C682.1 98.668 682.86 98.536 683.532 98.272C684.204 98 684.732 97.616 685.116 97.12C685.5 96.624 685.692 96.036 685.692 95.356C685.692 94.908 685.612 94.528 685.452 94.216C685.292 93.896 685.08 93.632 684.816 93.424C684.552 93.216 684.264 93.044 683.952 92.908C683.64 92.764 683.336 92.648 683.04 92.56L678.66 91.252C678.132 91.1 677.644 90.908 677.196 90.676C676.748 90.436 676.356 90.152 676.02 89.824C675.692 89.488 675.436 89.096 675.252 88.648C675.068 88.2 674.976 87.688 674.976 87.112C674.976 86.136 675.232 85.292 675.744 84.58C676.256 83.868 676.956 83.32 677.844 82.936C678.732 82.552 679.744 82.364 680.88 82.372C682.032 82.372 683.06 82.576 683.964 82.984C684.876 83.392 685.628 83.976 686.22 84.736C686.812 85.488 687.204 86.38 687.396 87.412L685.548 87.748C685.428 86.996 685.152 86.344 684.72 85.792C684.288 85.24 683.736 84.816 683.064 84.52C682.4 84.216 681.668 84.06 680.868 84.052C680.092 84.052 679.4 84.184 678.792 84.448C678.192 84.704 677.716 85.056 677.364 85.504C677.012 85.952 676.836 86.464 676.836 87.04C676.836 87.624 676.996 88.092 677.316 88.444C677.644 88.796 678.044 89.072 678.516 89.272C678.996 89.472 679.46 89.636 679.908 89.764L683.292 90.76C683.644 90.856 684.056 90.996 684.528 91.18C685.008 91.356 685.472 91.612 685.92 91.948C686.376 92.276 686.752 92.708 687.048 93.244C687.344 93.78 687.492 94.46 687.492 95.284C687.492 96.084 687.332 96.8 687.012 97.432C686.7 98.064 686.256 98.596 685.68 99.028C685.112 99.46 684.444 99.788 683.676 100.012C682.916 100.244 682.084 100.36 681.18 100.36ZM692.717 100.36C691.741 100.36 690.921 100.184 690.257 99.832C689.601 99.48 689.109 99.012 688.781 98.428C688.453 97.844 688.289 97.208 688.289 96.52C688.289 95.816 688.429 95.216 688.709 94.72C688.997 94.216 689.385 93.804 689.873 93.484C690.369 93.164 690.941 92.92 691.589 92.752C692.245 92.592 692.969 92.452 693.761 92.332C694.561 92.204 695.341 92.096 696.101 92.008C696.869 91.912 697.541 91.82 698.117 91.732L697.493 92.116C697.517 90.836 697.269 89.888 696.749 89.272C696.229 88.656 695.325 88.348 694.037 88.348C693.149 88.348 692.397 88.548 691.781 88.948C691.173 89.348 690.745 89.98 690.497 90.844L688.781 90.34C689.077 89.18 689.673 88.28 690.569 87.64C691.465 87 692.629 86.68 694.061 86.68C695.245 86.68 696.249 86.904 697.073 87.352C697.905 87.792 698.493 88.432 698.837 89.272C698.997 89.648 699.101 90.068 699.149 90.532C699.197 90.996 699.221 91.468 699.221 91.948V100H697.649V96.748L698.105 96.94C697.665 98.052 696.981 98.9 696.053 99.484C695.125 100.068 694.013 100.36 692.717 100.36ZM692.921 98.836C693.745 98.836 694.465 98.688 695.081 98.392C695.697 98.096 696.193 97.692 696.569 97.18C696.945 96.66 697.189 96.076 697.301 95.428C697.397 95.012 697.449 94.556 697.457 94.06C697.465 93.556 697.469 93.18 697.469 92.932L698.141 93.28C697.541 93.36 696.889 93.44 696.185 93.52C695.489 93.6 694.801 93.692 694.121 93.796C693.449 93.9 692.841 94.024 692.297 94.168C691.929 94.272 691.573 94.42 691.229 94.612C690.885 94.796 690.601 95.044 690.377 95.356C690.161 95.668 690.053 96.056 690.053 96.52C690.053 96.896 690.145 97.26 690.329 97.612C690.521 97.964 690.825 98.256 691.241 98.488C691.665 98.72 692.225 98.836 692.921 98.836ZM708.441 100C707.713 100.152 706.993 100.212 706.281 100.18C705.577 100.148 704.945 99.996 704.385 99.724C703.833 99.452 703.413 99.028 703.125 98.452C702.893 97.972 702.765 97.488 702.741 97C702.725 96.504 702.717 95.94 702.717 95.308V83.44H704.469V95.236C704.469 95.78 704.473 96.236 704.481 96.604C704.497 96.964 704.581 97.284 704.733 97.564C705.021 98.1 705.477 98.42 706.101 98.524C706.733 98.628 707.513 98.604 708.441 98.452V100ZM699.945 88.552V87.04H708.441V88.552H699.945ZM710.274 84.58V82.6H712.038V84.58H710.274ZM710.274 100V87.04H712.038V100H710.274ZM719.512 100.348C717.992 100.348 716.74 100.02 715.756 99.364C714.78 98.708 714.18 97.796 713.956 96.628L715.756 96.328C715.948 97.064 716.384 97.652 717.064 98.092C717.752 98.524 718.6 98.74 719.608 98.74C720.592 98.74 721.368 98.536 721.936 98.128C722.504 97.712 722.788 97.148 722.788 96.436C722.788 96.036 722.696 95.712 722.512 95.464C722.336 95.208 721.972 94.972 721.42 94.756C720.868 94.54 720.044 94.284 718.948 93.988C717.772 93.668 716.852 93.348 716.188 93.028C715.524 92.708 715.052 92.34 714.772 91.924C714.492 91.5 714.352 90.984 714.352 90.376C714.352 89.64 714.56 88.996 714.976 88.444C715.392 87.884 715.968 87.452 716.704 87.148C717.44 86.836 718.296 86.68 719.272 86.68C720.248 86.68 721.12 86.84 721.888 87.16C722.664 87.472 723.288 87.912 723.76 88.48C724.232 89.048 724.512 89.708 724.6 90.46L722.8 90.784C722.68 90.024 722.3 89.424 721.66 88.984C721.028 88.536 720.224 88.304 719.248 88.288C718.328 88.264 717.58 88.44 717.004 88.816C716.428 89.184 716.14 89.676 716.14 90.292C716.14 90.636 716.244 90.932 716.452 91.18C716.66 91.42 717.036 91.648 717.58 91.864C718.132 92.08 718.916 92.316 719.932 92.572C721.124 92.876 722.06 93.196 722.74 93.532C723.42 93.868 723.904 94.264 724.192 94.72C724.48 95.176 724.624 95.74 724.624 96.412C724.624 97.636 724.168 98.6 723.256 99.304C722.352 100 721.104 100.348 719.512 100.348ZM727.609 100V86.08C727.609 85.744 727.625 85.412 727.657 85.084C727.697 84.756 727.773 84.444 727.885 84.148C727.997 83.844 728.173 83.564 728.413 83.308C728.677 83.02 728.965 82.812 729.277 82.684C729.589 82.548 729.913 82.46 730.249 82.42C730.593 82.38 730.929 82.36 731.257 82.36H732.913V83.848H731.377C730.705 83.848 730.201 84.012 729.865 84.34C729.537 84.668 729.373 85.184 729.373 85.888V100H727.609ZM725.365 88.552V87.04H732.913V88.552H725.365ZM735.433 84.58V82.6H737.197V84.58H735.433ZM735.433 100V87.04H737.197V100H735.433ZM745.31 100.36C744.046 100.36 742.95 100.08 742.022 99.52C741.102 98.96 740.386 98.172 739.874 97.156C739.362 96.14 739.106 94.948 739.106 93.58C739.106 92.164 739.358 90.94 739.862 89.908C740.366 88.876 741.074 88.08 741.986 87.52C742.906 86.96 743.99 86.68 745.238 86.68C746.518 86.68 747.61 86.976 748.514 87.568C749.418 88.152 750.102 88.992 750.566 90.088C751.03 91.184 751.242 92.492 751.202 94.012H749.402V93.388C749.37 91.708 749.006 90.44 748.31 89.584C747.622 88.728 746.614 88.3 745.286 88.3C743.894 88.3 742.826 88.752 742.082 89.656C741.346 90.56 740.978 91.848 740.978 93.52C740.978 95.152 741.346 96.42 742.082 97.324C742.826 98.22 743.878 98.668 745.238 98.668C746.166 98.668 746.974 98.456 747.662 98.032C748.358 97.6 748.906 96.98 749.306 96.172L750.95 96.808C750.438 97.936 749.682 98.812 748.682 99.436C747.69 100.052 746.566 100.36 745.31 100.36ZM740.354 94.012V92.536H750.254V94.012H740.354ZM757.933 100.36C756.725 100.36 755.693 100.06 754.837 99.46C753.981 98.852 753.325 98.032 752.869 97C752.413 95.968 752.185 94.804 752.185 93.508C752.185 92.22 752.409 91.06 752.857 90.028C753.313 88.996 753.965 88.18 754.813 87.58C755.661 86.98 756.677 86.68 757.861 86.68C759.077 86.68 760.101 86.976 760.933 87.568C761.765 88.16 762.393 88.972 762.817 90.004C763.249 91.028 763.465 92.196 763.465 93.508C763.465 94.796 763.253 95.96 762.829 97C762.405 98.032 761.781 98.852 760.957 99.46C760.133 100.06 759.125 100.36 757.933 100.36ZM758.113 98.716C759.033 98.716 759.793 98.492 760.393 98.044C760.993 97.596 761.441 96.98 761.737 96.196C762.033 95.404 762.181 94.508 762.181 93.508C762.181 92.492 762.033 91.596 761.737 90.82C761.441 90.036 760.993 89.424 760.393 88.984C759.801 88.544 759.053 88.324 758.149 88.324C757.221 88.324 756.453 88.552 755.845 89.008C755.237 89.464 754.785 90.084 754.489 90.868C754.201 91.652 754.057 92.532 754.057 93.508C754.057 94.492 754.205 95.38 754.501 96.172C754.805 96.956 755.257 97.576 755.857 98.032C756.457 98.488 757.209 98.716 758.113 98.716ZM762.181 100V90.244H761.989V82.72H763.765V100H762.181ZM777.013 100.36C775.293 100.36 773.841 99.98 772.657 99.22C771.473 98.452 770.577 97.392 769.969 96.04C769.361 94.688 769.057 93.128 769.057 91.36C769.057 89.592 769.361 88.032 769.969 86.68C770.577 85.328 771.473 84.272 772.657 83.512C773.841 82.744 775.293 82.36 777.013 82.36C779.021 82.36 780.661 82.876 781.933 83.908C783.205 84.932 784.077 86.308 784.549 88.036L782.749 88.504C782.381 87.136 781.721 86.052 780.769 85.252C779.817 84.452 778.565 84.052 777.013 84.052C775.661 84.052 774.537 84.36 773.641 84.976C772.745 85.592 772.069 86.452 771.613 87.556C771.165 88.652 770.933 89.92 770.917 91.36C770.909 92.8 771.129 94.068 771.577 95.164C772.033 96.26 772.713 97.12 773.617 97.744C774.529 98.36 775.661 98.668 777.013 98.668C778.565 98.668 779.817 98.268 780.769 97.468C781.721 96.66 782.381 95.576 782.749 94.216L784.549 94.684C784.077 96.412 783.205 97.792 781.933 98.824C780.661 99.848 779.021 100.36 777.013 100.36ZM791.192 100.324C790.416 100.324 789.736 100.204 789.152 99.964C788.576 99.724 788.084 99.4 787.676 98.992C787.276 98.584 786.952 98.12 786.704 97.6C786.456 97.072 786.276 96.516 786.164 95.932C786.052 95.34 785.996 94.752 785.996 94.168V87.04H787.772V93.652C787.772 94.364 787.84 95.024 787.976 95.632C788.112 96.24 788.328 96.772 788.624 97.228C788.928 97.676 789.316 98.024 789.788 98.272C790.268 98.52 790.848 98.644 791.528 98.644C792.152 98.644 792.7 98.536 793.172 98.32C793.652 98.104 794.052 97.796 794.372 97.396C794.7 96.988 794.948 96.496 795.116 95.92C795.284 95.336 795.368 94.68 795.368 93.952L796.616 94.228C796.616 95.556 796.384 96.672 795.92 97.576C795.456 98.48 794.816 99.164 794 99.628C793.184 100.092 792.248 100.324 791.192 100.324ZM795.548 100V96.808H795.368V87.04H797.132V100H795.548ZM804.362 100.348C802.842 100.348 801.59 100.02 800.606 99.364C799.63 98.708 799.03 97.796 798.806 96.628L800.606 96.328C800.798 97.064 801.234 97.652 801.914 98.092C802.602 98.524 803.45 98.74 804.458 98.74C805.442 98.74 806.218 98.536 806.786 98.128C807.354 97.712 807.638 97.148 807.638 96.436C807.638 96.036 807.546 95.712 807.362 95.464C807.186 95.208 806.822 94.972 806.27 94.756C805.718 94.54 804.894 94.284 803.798 93.988C802.622 93.668 801.702 93.348 801.038 93.028C800.374 92.708 799.902 92.34 799.622 91.924C799.342 91.5 799.202 90.984 799.202 90.376C799.202 89.64 799.41 88.996 799.826 88.444C800.242 87.884 800.818 87.452 801.554 87.148C802.29 86.836 803.146 86.68 804.122 86.68C805.098 86.68 805.97 86.84 806.738 87.16C807.514 87.472 808.138 87.912 808.61 88.48C809.082 89.048 809.362 89.708 809.45 90.46L807.65 90.784C807.53 90.024 807.15 89.424 806.51 88.984C805.878 88.536 805.074 88.304 804.098 88.288C803.178 88.264 802.43 88.44 801.854 88.816C801.278 89.184 800.99 89.676 800.99 90.292C800.99 90.636 801.094 90.932 801.302 91.18C801.51 91.42 801.886 91.648 802.43 91.864C802.982 92.08 803.766 92.316 804.782 92.572C805.974 92.876 806.91 93.196 807.59 93.532C808.27 93.868 808.754 94.264 809.042 94.72C809.33 95.176 809.474 95.74 809.474 96.412C809.474 97.636 809.018 98.6 808.106 99.304C807.202 100 805.954 100.348 804.362 100.348ZM818.232 100C817.504 100.152 816.784 100.212 816.072 100.18C815.368 100.148 814.736 99.996 814.176 99.724C813.624 99.452 813.204 99.028 812.916 98.452C812.684 97.972 812.556 97.488 812.532 97C812.516 96.504 812.508 95.94 812.508 95.308V83.44H814.26V95.236C814.26 95.78 814.264 96.236 814.272 96.604C814.288 96.964 814.372 97.284 814.524 97.564C814.812 98.1 815.268 98.42 815.892 98.524C816.524 98.628 817.304 98.604 818.232 98.452V100ZM809.736 88.552V87.04H818.232V88.552H809.736ZM824.768 100.36C823.48 100.36 822.38 100.068 821.468 99.484C820.556 98.9 819.856 98.092 819.368 97.06C818.88 96.028 818.636 94.844 818.636 93.508C818.636 92.148 818.884 90.956 819.38 89.932C819.876 88.908 820.58 88.112 821.492 87.544C822.412 86.968 823.504 86.68 824.768 86.68C826.064 86.68 827.168 86.972 828.08 87.556C829 88.132 829.7 88.936 830.18 89.968C830.668 90.992 830.912 92.172 830.912 93.508C830.912 94.868 830.668 96.064 830.18 97.096C829.692 98.12 828.988 98.92 828.068 99.496C827.148 100.072 826.048 100.36 824.768 100.36ZM824.768 98.668C826.208 98.668 827.28 98.192 827.984 97.24C828.688 96.28 829.04 95.036 829.04 93.508C829.04 91.94 828.684 90.692 827.972 89.764C827.268 88.836 826.2 88.372 824.768 88.372C823.8 88.372 823 88.592 822.368 89.032C821.744 89.464 821.276 90.068 820.964 90.844C820.66 91.612 820.508 92.5 820.508 93.508C820.508 95.068 820.868 96.32 821.588 97.264C822.308 98.2 823.368 98.668 824.768 98.668ZM848.055 100L848.067 91.492C848.067 90.492 847.787 89.708 847.227 89.14C846.675 88.564 845.971 88.276 845.115 88.276C844.627 88.276 844.151 88.388 843.687 88.612C843.223 88.836 842.839 89.196 842.535 89.692C842.239 90.188 842.091 90.836 842.091 91.636L841.047 91.336C841.023 90.408 841.203 89.596 841.587 88.9C841.979 88.204 842.515 87.664 843.195 87.28C843.883 86.888 844.659 86.692 845.523 86.692C846.827 86.692 847.871 87.096 848.655 87.904C849.439 88.704 849.831 89.788 849.831 91.156L849.819 100H848.055ZM832.587 100V87.04H834.171V90.232H834.363V100H832.587ZM840.339 100L840.351 91.612C840.351 90.58 840.075 89.768 839.523 89.176C838.979 88.576 838.259 88.276 837.363 88.276C836.467 88.276 835.743 88.584 835.191 89.2C834.639 89.808 834.363 90.62 834.363 91.636L833.307 91.06C833.307 90.228 833.503 89.484 833.895 88.828C834.287 88.164 834.823 87.644 835.503 87.268C836.183 86.884 836.955 86.692 837.819 86.692C838.643 86.692 839.375 86.868 840.015 87.22C840.663 87.572 841.171 88.084 841.539 88.756C841.907 89.428 842.091 90.244 842.091 91.204L842.079 100H840.339ZM857.397 100.36C856.133 100.36 855.037 100.08 854.109 99.52C853.189 98.96 852.473 98.172 851.961 97.156C851.449 96.14 851.193 94.948 851.193 93.58C851.193 92.164 851.445 90.94 851.949 89.908C852.453 88.876 853.161 88.08 854.073 87.52C854.993 86.96 856.077 86.68 857.325 86.68C858.605 86.68 859.697 86.976 860.601 87.568C861.505 88.152 862.189 88.992 862.653 90.088C863.117 91.184 863.329 92.492 863.289 94.012H861.489V93.388C861.457 91.708 861.093 90.44 860.397 89.584C859.709 88.728 858.701 88.3 857.373 88.3C855.981 88.3 854.913 88.752 854.169 89.656C853.433 90.56 853.065 91.848 853.065 93.52C853.065 95.152 853.433 96.42 854.169 97.324C854.913 98.22 855.965 98.668 857.325 98.668C858.253 98.668 859.061 98.456 859.749 98.032C860.445 97.6 860.993 96.98 861.393 96.172L863.037 96.808C862.525 97.936 861.769 98.812 860.769 99.436C859.777 100.052 858.653 100.36 857.397 100.36ZM852.441 94.012V92.536H862.341V94.012H852.441ZM864.992 100V87.04H866.576V90.16L866.264 89.752C866.408 89.368 866.596 89.016 866.828 88.696C867.06 88.368 867.312 88.1 867.584 87.892C867.92 87.596 868.312 87.372 868.76 87.22C869.208 87.06 869.66 86.968 870.116 86.944C870.572 86.912 870.988 86.944 871.364 87.04V88.696C870.892 88.576 870.376 88.548 869.816 88.612C869.256 88.676 868.74 88.9 868.268 89.284C867.836 89.62 867.512 90.024 867.296 90.496C867.08 90.96 866.936 91.456 866.864 91.984C866.792 92.504 866.756 93.02 866.756 93.532V100H864.992ZM877.048 100.348C875.528 100.348 874.276 100.02 873.292 99.364C872.316 98.708 871.716 97.796 871.492 96.628L873.292 96.328C873.484 97.064 873.92 97.652 874.6 98.092C875.288 98.524 876.136 98.74 877.144 98.74C878.128 98.74 878.904 98.536 879.472 98.128C880.04 97.712 880.324 97.148 880.324 96.436C880.324 96.036 880.232 95.712 880.048 95.464C879.872 95.208 879.508 94.972 878.956 94.756C878.404 94.54 877.58 94.284 876.484 93.988C875.308 93.668 874.388 93.348 873.724 93.028C873.06 92.708 872.588 92.34 872.308 91.924C872.028 91.5 871.888 90.984 871.888 90.376C871.888 89.64 872.096 88.996 872.512 88.444C872.928 87.884 873.504 87.452 874.24 87.148C874.976 86.836 875.832 86.68 876.808 86.68C877.784 86.68 878.656 86.84 879.424 87.16C880.2 87.472 880.824 87.912 881.296 88.48C881.768 89.048 882.048 89.708 882.136 90.46L880.336 90.784C880.216 90.024 879.836 89.424 879.196 88.984C878.564 88.536 877.76 88.304 876.784 88.288C875.864 88.264 875.116 88.44 874.54 88.816C873.964 89.184 873.676 89.676 873.676 90.292C873.676 90.636 873.78 90.932 873.988 91.18C874.196 91.42 874.572 91.648 875.116 91.864C875.668 92.08 876.452 92.316 877.468 92.572C878.66 92.876 879.596 93.196 880.276 93.532C880.956 93.868 881.44 94.264 881.728 94.72C882.016 95.176 882.16 95.74 882.16 96.412C882.16 97.636 881.704 98.6 880.792 99.304C879.888 100 878.64 100.348 877.048 100.348Z" fill="#7F56D9"/>
</svg>
